#!OML:ASF F:\VICON\USERDATA\INSTALL\rory3\rory3.ASF
:FULLY-SPECIFIED
:DEGREES
3839
root -0.178958 17.5689 2.43115 5.68671 13.2412 -1.68549
lowerback 9.33557 3.80921 1.95636
upperback 2.08071 5.36261 3.01814
thorax -3.16818 2.65864 1.39012
lowerneck -32.504 -4.04912 -6.76975
upperneck 11.2204 -2.94713 2.36204
head 8.7327 -1.40351 1.41736
rclavicle -7.93151e-014 -2.3059e-014
rhumerus 53.8947 -21.0943 -51.3995
rradius 56.683
rwrist 14.2932
rhand -60.8759 -14.0137
rfingers 7.12502
rthumb -32.9853 -41.017
lclavicle -7.93151e-014 -2.3059e-014
lhumerus -23.6153 1.31424 59.3985
lradius 45.2836
lwrist -8.3767
lhand -23.3611 26.9221
lfingers 7.12502
lthumb 3.09442 416.879
rfemur -16.187 -8.69323 11.9757
rtibia 31.1904
rfoot -17.5738 -7.29423
rtoes 3.8613
lfemur -21.5766 0.777565 -10.9181
ltibia 33.0988
lfoot -13.1787 3.22538
ltoes -25.3188
3840
root -0.145036 17.5698 2.44456 5.62747 13.7539 -1.83527
lowerback 9.39714 3.91745 1.84101
upperback 1.98458 5.49594 2.88025
thorax -3.30107 2.72386 1.28726
lowerneck -32.3974 -4.32613 -7.00436
upperneck 11.2263 -3.27631 2.62252
head 8.74309 -1.53722 1.49299
rclavicle 4.94974e-014 -2.54444e-014
rhumerus 53.9585 -20.839 -51.2751
rradius 56.7024
rwrist 14.5824
rhand -60.8035 -14.6385
rfingers 7.12502
rthumb -32.9165 -41.6563
lclavicle 4.94974e-014 -2.54444e-014
lhumerus -24.2043 1.87131 59.0386
lradius 45.5399
lwrist -8.26692
lhand -23.59 26.4098
lfingers 7.12502
lthumb 2.87331 416.37
rfemur -15.7933 -8.75939 12.0251
rtibia 30.8714
rfoot -17.7431 -7.65941
rtoes 3.71437
lfemur -21.7422 0.576686 -10.8608
ltibia 33.2913
lfoot -13.2823 2.95903
ltoes -25.3632
3841
root -0.113734 17.5682 2.45609 5.56863 14.2197 -2.03895
lowerback 8.73762 4.08548 1.67137
upperback 2.45211 5.66461 2.88178
thorax -2.47019 2.81765 1.43242
lowerneck -32.743 -4.78084 -7.47209
upperneck 10.9481 -3.71376 2.97753
head 8.73008 -1.71205 1.61734
rclavicle -7.87187e-014 -1.74931e-014
rhumerus 54.9118 -21.1019 -51.6213
rradius 56.7544
rwrist 15.2009
rhand -60.7977 -15.0592
rfingers 7.12502
rthumb -32.9109 -42.0781
lclavicle -7.87187e-014 -1.74931e-014
lhumerus -23.9655 3.09404 58.9853
lradius 45.5669
lwrist -8.30942
lhand -24.0391 25.5167
lfingers 7.12502
lthumb 2.43961 415.482
rfemur -15.4345 -8.84543 12.1488
rtibia 30.5354
rfoot -17.8838 -7.94893
rtoes 3.50332
lfemur -21.9117 0.408059 -10.7297
ltibia 33.4879
lfoot -13.4127 2.68398
ltoes -25.01
3842
root -0.0787634 17.5683 2.46342 5.60346 14.7347 -2.25257
lowerback 8.68508 4.15744 1.70519
upperback 2.38192 5.75759 2.69203
thorax -2.49235 2.86316 1.20994
lowerneck -32.7812 -5.07581 -7.58311
upperneck 11.0304 -4.10085 3.20436
head 8.79252 -1.87034 1.65038
rclavicle -9.323e-014 -1.19271e-014
rhumerus 55.0531 -20.886 -52.0228
rradius 56.7148
rwrist 15.7741
rhand -60.9755 -14.6255
rfingers 7.12502
rthumb -33.08 -41.6088
lclavicle -9.323e-014 -1.19271e-014
lhumerus -24.5902 3.69257 58.5378
lradius 45.8981
lwrist -8.15178
lhand -24.2412 25.6126
lfingers 7.12502
lthumb 2.24441 415.581
rfemur -15.1739 -9.05352 12.2856
rtibia 30.1916
rfoot -17.9555 -8.22054
rtoes 2.57118
lfemur -22.227 0.150506 -10.6065
ltibia 33.7093
lfoot -13.4889 2.52311
ltoes -25.0626
3843
root -0.0425097 17.5691 2.47265 5.69719 15.2791 -2.39876
lowerback 8.48432 4.25018 1.6597
upperback 2.35467 5.86543 2.50344
thorax -2.39562 2.91765 1.04483
lowerneck -32.7619 -5.34735 -7.70144
upperneck 11.0229 -4.4581 3.43494
head 8.81484 -2.01383 1.69121
rclavicle 5.40694e-014 -2.38542e-015
rhumerus 55.3383 -20.7834 -52.3728
rradius 56.4748
rwrist 16.6961
rhand -60.7379 -14.825
rfingers 7.12502
rthumb -32.854 -41.8559
lclavicle 5.40694e-014 -2.38542e-015
lhumerus -25.0373 4.20204 58.2713
lradius 46.1917
lwrist -8.01268
lhand -23.5971 26.9845
lfingers 7.12502
lthumb 2.86648 416.945
rfemur -14.9412 -9.20517 12.3541
rtibia 29.8573
rfoot -18.0985 -8.55754
rtoes 2.19393
lfemur -22.5796 -0.0482329 -10.5701
ltibia 33.9227
lfoot -13.6016 2.24744
ltoes -25.2447
3844
root -0.00921871 17.57 2.4845 5.66784 15.7139 -2.61102
lowerback 8.38291 4.39841 1.65268
upperback 2.34101 6.05285 2.30824
thorax -2.33495 3.0112 0.837356
lowerneck -32.6772 -5.67347 -7.904
upperneck 11.0147 -4.89175 3.82912
head 8.84044 -2.17776 1.79073
rclavicle -8.15017e-015 -1.74931e-014
rhumerus 55.7483 -20.7452 -52.8052
rradius 56.1489
rwrist 17.8256
rhand -60.3952 -15.4471
rfingers 7.12502
rthumb -32.528 -42.5458
lclavicle -8.15017e-015 -1.74931e-014
lhumerus -25.3592 4.61562 58.0225
lradius 46.2457
lwrist -7.84142
lhand -23.5313 27.8701
lfingers 7.12502
lthumb 2.92996 417.83
rfemur -14.6405 -9.23325 12.4854
rtibia 29.5507
rfoot -18.2129 -8.84695
rtoes 2.55829
lfemur -22.7717 -0.0733385 -10.4563
ltibia 34.1105
lfoot -13.7208 1.89965
ltoes -25.2791
3845
root 0.0232994 17.5714 2.49851 5.60182 16.1391 -2.76407
lowerback 8.37608 4.52046 1.54642
upperback 2.28514 6.20172 2.12248
thorax -2.38038 3.08484 0.688256
lowerneck -32.4647 -5.94728 -8.0341
upperneck 10.9149 -5.2691 4.08413
head 8.80806 -2.33023 1.84032
rclavicle -4.57205e-015 3.18055e-015
rhumerus 56.0099 -20.524 -53.1367
rradius 55.9099
rwrist 18.6407
rhand -60.5052 -15.1721
rfingers 7.12502
rthumb -32.6326 -42.2491
lclavicle -4.57205e-015 3.18055e-015
lhumerus -25.8966 5.00109 57.691
lradius 46.2381
lwrist -7.52441
lhand -24.1005 28.2051
lfingers 7.12502
lthumb 2.38029 418.172
rfemur -14.267 -9.31306 12.5525
rtibia 29.2428
rfoot -18.3174 -9.09166
rtoes 2.29588
lfemur -22.8761 -0.195353 -10.393
ltibia 34.2951
lfoot -13.8286 1.62197
ltoes -24.8744
3846
root 0.0570234 17.57 2.51073 5.64764 16.6158 -2.80067
lowerback 8.35711 4.6103 1.38428
upperback 2.1681 6.30285 1.89535
thorax -2.48309 3.13419 0.530121
lowerneck -32.1233 -6.16083 -8.16004
upperneck 10.7147 -5.57385 4.32052
head 8.71797 -2.45264 1.89676
rclavicle 1.76918e-014 -9.54166e-015
rhumerus 56.1853 -20.2316 -53.409
rradius 55.6901
rwrist 19.1803
rhand -60.6809 -14.693
rfingers 7.12502
rthumb -32.7998 -41.7353
lclavicle 1.76918e-014 -9.54166e-015
lhumerus -26.6699 5.35548 57.355
lradius 46.527
lwrist -7.32721
lhand -24.3366 28.1105
lfingers 7.12502
lthumb 2.15226 418.079
rfemur -13.9699 -9.47626 12.5042
rtibia 28.9312
rfoot -18.4707 -9.37423
rtoes 2.04281
lfemur -23.092 -0.392064 -10.4655
ltibia 34.4991
lfoot -13.928 1.43084
ltoes -24.9615
3847
root 0.0899097 17.5686 2.52043 5.60613 17.0355 -3.02112
lowerback 8.36377 4.70055 1.38745
upperback 2.09588 6.41877 1.70688
thorax -2.53969 3.19068 0.319767
lowerneck -31.935 -6.37072 -8.25527
upperneck 10.7008 -5.88781 4.60357
head 8.71887 -2.57222 1.96095
rclavicle -1.65687e-013 -1.03368e-014
rhumerus 56.156 -20.0574 -53.407
rradius 55.7191
rwrist 19.6747
rhand -60.4635 -15.3306
rfingers 7.12502
rthumb -32.593 -42.4158
lclavicle -1.65687e-013 -1.03368e-014
lhumerus -27.3385 5.84489 57.0586
lradius 46.8201
lwrist -7.39625
lhand -24.3064 28.0393
lfingers 7.12502
lthumb 2.18148 418.008
rfemur -13.6667 -9.4737 12.661
rtibia 28.6265
rfoot -18.6617 -9.71419
rtoes 2.38419
lfemur -23.3034 -0.538828 -10.3354
ltibia 34.7308
lfoot -14.0703 1.21293
ltoes -25.175
3848
root 0.122068 17.567 2.53109 5.49717 17.3988 -3.38151
lowerback 8.29957 4.81008 1.44126
upperback 2.11548 6.56378 1.60884
thorax -2.46622 3.26328 0.182737
lowerneck -31.8182 -6.65566 -8.49501
upperneck 10.6861 -6.25936 5.00991
head 8.74418 -2.70955 2.08014
rclavicle -1.75924e-014 -1.59028e-015
rhumerus 56.2885 -19.8744 -53.4313
rradius 55.7617
rwrist 20.1232
rhand -59.9689 -15.6993
rfingers 7.12502
rthumb -32.1223 -42.8806
lclavicle -1.75924e-014 -1.59028e-015
lhumerus -27.8381 6.37553 56.8631
lradius 47.0126
lwrist -7.28165
lhand -24.266 28.0977
lfingers 7.12502
lthumb 2.22047 418.066
rfemur -13.3666 -9.49705 12.9624
rtibia 28.3323
rfoot -18.8132 -9.98428
rtoes 2.56637
lfemur -23.4898 -0.562313 -10.0482
ltibia 34.9841
lfoot -14.2646 0.878994
ltoes -24.8802
3849
root 0.155537 17.5631 2.53868 5.50436 17.7883 -3.58494
lowerback 8.15385 4.9063 1.4038
upperback 2.15542 6.68 1.46873
thorax -2.33144 3.3228 0.0648367
lowerneck -31.7526 -6.95098 -8.84647
upperneck 10.5803 -6.59921 5.46732
head 8.7508 -2.82957 2.23938
rclavicle 6.03311e-014 -3.57812e-015
rhumerus 56.6892 -19.6054 -53.5465
rradius 55.6075
rwrist 20.2073
rhand -59.999 -15.4782
rfingers 7.12502
rthumb -32.1509 -42.6538
lclavicle 6.03311e-014 -3.57812e-015
lhumerus -28.2136 7.10172 56.6847
lradius 47.0377
lwrist -7.36775
lhand -23.9114 27.8211
lfingers 7.12502
lthumb 2.56288 417.785
rfemur -13.1531 -9.70899 13.0992
rtibia 28.0427
rfoot -18.7888 -10.2154
rtoes 2.25152
lfemur -23.7543 -0.580524 -9.94896
ltibia 35.2487
lfoot -14.4535 0.58219
ltoes -25.2975
3850
root 0.190655 17.561 2.54737 5.53013 18.2061 -3.74082
lowerback 8.06188 5.00158 1.39448
upperback 2.11665 6.79879 1.27607
thorax -2.2976 3.38203 -0.131032
lowerneck -31.6022 -7.19305 -8.94335
upperneck 10.5067 -6.93037 5.65051
head 8.73789 -2.96875 2.26456
rclavicle -1.30204e-014 -9.54166e-015
rhumerus 56.9932 -19.3498 -53.6172
rradius 55.3283
rwrist 20.4364
rhand -59.9611 -15.2174
rfingers 7.12502
rthumb -32.1148 -42.4003
lclavicle -1.30204e-014 -9.54166e-015
lhumerus -28.672 7.7657 56.4748
lradius 46.9802
lwrist -7.52557
lhand -23.7758 27.268
lfingers 7.12502
lthumb 2.69391 417.231
rfemur -12.9267 -9.81229 13.1795
rtibia 27.7718
rfoot -18.8891 -10.4952
rtoes 2.46602
lfemur -24.0174 -0.604519 -9.91253
ltibia 35.4965
lfoot -14.609 0.299405
ltoes -25.5241
3851
root 0.222941 17.5586 2.55812 5.48299 18.6329 -3.81169
lowerback 8.21537 5.08469 1.30844
upperback 1.99147 6.90001 1.04126
thorax -2.49188 3.42953 -0.355318
lowerneck -31.2595 -7.40308 -8.84088
upperneck 10.351 -7.30009 5.74425
head 8.66089 -3.13181 2.22419
rclavicle -1.25831e-013 -1.98785e-015
rhumerus 57.2059 -18.9766 -53.7701
rradius 55.0106
rwrist 20.9809
rhand -59.7263 -15.707
rfingers 7.12502
rthumb -31.8912 -42.9347
lclavicle -1.25831e-013 -1.98785e-015
lhumerus -29.3113 7.97286 56.2442
lradius 46.9997
lwrist -7.12509
lhand -24.1268 26.7959
lfingers 7.12502
lthumb 2.35487 416.763
rfemur -12.6065 -9.73621 13.1652
rtibia 27.5576
rfoot -19.2023 -10.8159
rtoes 3.17005
lfemur -24.1601 -0.727976 -9.92962
ltibia 35.7157
lfoot -14.7757 -0.0302795
ltoes -25.219
3852
root 0.255049 17.557 2.5683 5.45035 19.0466 -4.00715
lowerback 8.25925 5.17013 1.28367
upperback 1.87874 7.00895 0.879718
thorax -2.61406 3.48156 -0.528108
lowerneck -30.8558 -7.62199 -8.9166
upperneck 10.1681 -7.64004 5.97419
head 8.57688 -3.27501 2.2655
rclavicle 9.52676e-014 -1.96797e-014
rhumerus 57.4114 -18.6111 -53.8913
rradius 54.7303
rwrist 21.4033
rhand -59.9773 -15.3076
rfingers 7.12502
rthumb -32.1302 -42.4874
lclavicle 9.52676e-014 -1.96797e-014
lhumerus -29.9714 8.15479 56.0966
lradius 47.1103
lwrist -6.70821
lhand -24.156 26.5766
lfingers 7.12502
lthumb 2.3267 416.544
rfemur -12.3807 -9.7112 13.2858
rtibia 27.3631
rfoot -19.3983 -11.1554
rtoes 3.16658
lfemur -24.3585 -0.86532 -9.8123
ltibia 35.9145
lfoot -14.9154 -0.316031
ltoes -25.0179
3853
root 0.28836 17.5538 2.57466 5.51985 19.3872 -4.09666
lowerback 8.09786 5.27292 1.12067
upperback 1.95545 7.12344 0.731615
thorax -2.4447 3.54172 -0.580356
lowerneck -31.0004 -7.83268 -8.99403
upperneck 10.1571 -7.89787 6.10286
head 8.62196 -3.37997 2.27632
rclavicle -3.3694e-014 9.74045e-015
rhumerus 57.974 -18.4394 -54.0423
rradius 54.4757
rwrist 21.7156
rhand -59.7202 -14.4299
rfingers 7.12502
rthumb -31.8854 -41.6587
lclavicle -3.3694e-014 9.74045e-015
lhumerus -30.3384 8.72666 56.0711
lradius 47.155
lwrist -6.49155
lhand -23.9943 26.2883
lfingers 7.12502
lthumb 2.48287 416.254
rfemur -12.2558 -9.74567 13.2943
rtibia 27.1745
rfoot -19.5673 -11.3556
rtoes 3.62773
lfemur -24.622 -0.974502 -9.82648
ltibia 36.1232
lfoot -15.0587 -0.515796
ltoes -24.707
